<svg id="Layer_1" data-name="Layer 1" xmlns="http://www.w3.org/2000/svg" width="221" height="48"><defs><clipPath id="clip-path"><path class="cls-1" d="M23 34.85a14.71 14.71 0 005.26-1.7 12.45 12.45 0 006.5-10.77v-.41h5.53a16.21 16.21 0 00-3-7.56L31.66 18a8.89 8.89 0 01.63 8.69c-1.55 3.54-5.2 6.64-9.29 8.12"/></clipPath><clipPath id="clip-path-2"><path class="cls-1" d="M40.4 22.82h-4.81a13.43 13.43 0 01-6.92 11.08A15.93 15.93 0 0121 35.84a17.84 17.84 0 01-6.28-1.16 15.36 15.36 0 008.09 2.38 14.17 14.17 0 0012.42-7.32l.23-.39 3.21 2A16.25 16.25 0 0040.45 24c0-.4 0-.79-.05-1.18"/></clipPath><clipPath id="clip-path-3"><path class="cls-1" d="M22.81 37.91A17.17 17.17 0 019.33 31a16.32 16.32 0 0028.93 1.18l-2.51-1.6a15 15 0 01-12.94 7.37"/></clipPath><clipPath id="clip-path-4"><path class="cls-1" d="M24.11 41.19A17.19 17.19 0 1141.3 24a17.19 17.19 0 01-17.19 17.19m0-40.83A23.64 23.64 0 1047.75 24 23.64 23.64 0 0024.11.36"/></clipPath><style>.cls-1{fill:none}.cls-3{fill:#ce66ff}.cls-4{fill:#ff6599}.cls-5{fill:red}.cls-6{fill:#f90}.cls-7{fill:#ff0}.cls-8{fill:#009a00}.cls-9{fill:#09c}.cls-10{fill:#340099}.cls-11{fill:#909}</style></defs><path d="M212.94 32.65v-4h-9.08v-4.09H212v-3.78h-8.11v-3.7h8.58v-4H199.3v19.57zm-24.61-12.34a2.27 2.27 0 01-.82.72 3.79 3.79 0 01-1.11.34 7.08 7.08 0 01-1.19.1H183v-4.55h2.52a7 7 0 011.1.08 3.1 3.1 0 011 .32 1.88 1.88 0 01.74.66 1.9 1.9 0 01.3 1.12 2.13 2.13 0 01-.32 1.21m6 12.34l-5.11-8.36a5.82 5.82 0 003-1.94 5.17 5.17 0 001.08-3.35 5.7 5.7 0 00-.63-2.81 5.13 5.13 0 00-1.7-1.82 7.1 7.1 0 00-2.4-1 12.59 12.59 0 00-2.75-.29h-7.45v19.57H183v-7.76h1.61l4.24 7.76zm-26.64-7.41a5.8 5.8 0 01-1.16 1.92 5.66 5.66 0 01-6.29 1.25 5.28 5.28 0 01-1.76-1.25 5.93 5.93 0 01-1.14-1.92 6.91 6.91 0 01-.35-2.44 7.12 7.12 0 01.4-2.38 5.49 5.49 0 011.15-1.89 5.48 5.48 0 014-1.7 5.66 5.66 0 012.28.46 5.19 5.19 0 011.76 1.24 5.81 5.81 0 011.15 1.89 6.65 6.65 0 01.41 2.38 6.91 6.91 0 01-.41 2.44m4.67-6.68a9.44 9.44 0 00-2.23-3.22 9.83 9.83 0 00-3.38-2 12.87 12.87 0 00-8.49 0 10 10 0 00-3.37 2 9.55 9.55 0 00-2.22 3.22 10.83 10.83 0 00-.8 4.24 11 11 0 00.8 4.23 9.85 9.85 0 002.22 3.29 10 10 0 003.37 2.11 12.39 12.39 0 008.49 0 9.83 9.83 0 003.38-2.11 9.73 9.73 0 002.21-3.32 11 11 0 00.8-4.23 10.83 10.83 0 00-.8-4.24M149.06 30l-3.29-3.1a4.74 4.74 0 01-1.68 1.44 5.19 5.19 0 01-2.46.55 5.62 5.62 0 01-2.23-.44 5 5 0 01-1.76-1.23 5.43 5.43 0 01-1.14-1.89 6.81 6.81 0 01-.42-2.43 6.63 6.63 0 01.42-2.39 5.7 5.7 0 011.16-1.89 5.26 5.26 0 011.78-1.25 5.48 5.48 0 012.27-.46 5.81 5.81 0 012.21.44 4 4 0 011.74 1.35l3.2-3.2a7.71 7.71 0 00-3.24-2.14 12.07 12.07 0 00-8.24 0 9.9 9.9 0 00-3.38 2 9.34 9.34 0 00-2.25 3.24 10.77 10.77 0 00-.81 4.25 10.62 10.62 0 00.8 4.2 9.69 9.69 0 002.26 3.27 9.86 9.86 0 003.32 2.11 11.43 11.43 0 004.19.75 10.49 10.49 0 004.39-.87 9.39 9.39 0 003.2-2.36m-22.53 2.7v-4h-9.08v-4.09h8.11v-3.78h-8.11v-3.7H126v-4h-13.11v19.57zM107.7 17.14v-4H91.94v4h5.52v15.51h4.72V17.14zm-21-4H82v19.51h4.75zM76.26 15a8.68 8.68 0 00-3-1.79 10 10 0 00-3.38-.61 11 11 0 00-2.74.34A7.66 7.66 0 0064.69 14 5.91 5.91 0 0063 16a5.54 5.54 0 00-.66 2.79 5.28 5.28 0 00.38 2.21 4.86 4.86 0 001.13 1.57 6 6 0 001.6 1.06 15.25 15.25 0 001.84.72c.64.2 1.22.39 1.72.57a6.06 6.06 0 011.27.58 2.6 2.6 0 01.79.7 1.61 1.61 0 01.28.94 2.13 2.13 0 01-.22 1 1.85 1.85 0 01-.6.67 2.84 2.84 0 01-.87.36 4.9 4.9 0 01-1 .11 5.08 5.08 0 01-2.33-.6 5.77 5.77 0 01-1.89-1.47l-3.1 3.14a8.76 8.76 0 003.26 2.09 11.71 11.71 0 004.06.73 10 10 0 002.79-.39 7.27 7.27 0 002.4-1.18 5.81 5.81 0 001.67-2 6.45 6.45 0 00.62-2.92 4.69 4.69 0 00-.58-2.44 5.48 5.48 0 00-1.46-1.64 7.9 7.9 0 00-2-1.07c-.72-.26-1.41-.51-2.07-.73-.46-.14-.88-.29-1.24-.42a5.37 5.37 0 01-1-.46 1.86 1.86 0 01-.6-.58 1.53 1.53 0 01-.21-.83 1.66 1.66 0 01.26-.95 2.22 2.22 0 01.76-.66 2.74 2.74 0 01.87-.32 6.19 6.19 0 011-.08 4.37 4.37 0 011.89.46 4.1 4.1 0 011.59 1.23zM218 15v-.62h.36a.93.93 0 01.29.05.23.23 0 01.14.24.25.25 0 01-.15.26.88.88 0 01-.32.07zm-.39 1.22h.39v-.91h.28l.51.91h.48l-.59-1a.7.7 0 00.37-.2.56.56 0 00.13-.39.67.67 0 00-.06-.3.58.58 0 00-.19-.19.71.71 0 00-.25-.11 1.54 1.54 0 00-.3 0h-.77zm-.74-1.72a1.52 1.52 0 01.86-.86 1.64 1.64 0 011.28 0 1.63 1.63 0 01.51.34 1.64 1.64 0 01.48 1.16 1.51 1.51 0 01-.13.63 1.54 1.54 0 01-.35.52 1.5 1.5 0 01-.51.35 1.64 1.64 0 01-1.8-.35 1.67 1.67 0 01-.34-.52 1.62 1.62 0 010-1.27m-.28 1.39a2.11 2.11 0 00.41.61 2 2 0 00.62.4 2 2 0 001.5 0 2 2 0 00.62-.4 2.11 2.11 0 00.41-.61 1.84 1.84 0 000-1.5 1.87 1.87 0 00-.41-.61 2.06 2.06 0 00-.62-.42 2 2 0 00-1.5 0 2.06 2.06 0 00-.62.42 1.87 1.87 0 00-.41.61 1.84 1.84 0 000 1.5"/><g clip-path="url(#clip-path)"><path class="cls-3" d="M0 0h58.26v5.33H0z"/><path class="cls-4" d="M0 5.33h58.26v5.33H0z"/><path class="cls-5" d="M0 10.67h58.26V16H0z"/><path class="cls-6" d="M0 16h58.26v5.33H0z"/><path class="cls-7" d="M0 21.33h58.26v5.33H0z"/><path class="cls-8" d="M0 26.67h58.26V32H0z"/><path class="cls-9" d="M0 32h58.26v5.33H0z"/><path class="cls-10" d="M0 37.33h58.26v5.33H0z"/><path class="cls-11" d="M0 42.67h58.26V48H0z"/></g><g clip-path="url(#clip-path-2)"><path class="cls-3" d="M0 0h58.26v5.33H0z"/><path class="cls-4" d="M0 5.33h58.26v5.33H0z"/><path class="cls-5" d="M0 10.67h58.26V16H0z"/><path class="cls-6" d="M0 16h58.26v5.33H0z"/><path class="cls-7" d="M0 21.33h58.26v5.33H0z"/><path class="cls-8" d="M0 26.67h58.26V32H0z"/><path class="cls-9" d="M0 32h58.26v5.33H0z"/><path class="cls-10" d="M0 37.33h58.26v5.33H0z"/><path class="cls-11" d="M0 42.67h58.26V48H0z"/></g><g clip-path="url(#clip-path-3)"><path class="cls-3" d="M0 0h58.26v5.33H0z"/><path class="cls-4" d="M0 5.33h58.26v5.33H0z"/><path class="cls-5" d="M0 10.67h58.26V16H0z"/><path class="cls-6" d="M0 16h58.26v5.33H0z"/><path class="cls-7" d="M0 21.33h58.26v5.33H0z"/><path class="cls-8" d="M0 26.67h58.26V32H0z"/><path class="cls-9" d="M0 32h58.26v5.33H0z"/><path class="cls-10" d="M0 37.33h58.26v5.33H0z"/><path class="cls-11" d="M0 42.67h58.26V48H0z"/></g><g clip-path="url(#clip-path-4)"><path class="cls-3" d="M0 0h58.26v5.33H0z"/><path class="cls-4" d="M0 5.33h58.26v5.33H0z"/><path class="cls-5" d="M0 10.67h58.26V16H0z"/><path class="cls-6" d="M0 16h58.26v5.33H0z"/><path class="cls-7" d="M0 21.33h58.26v5.33H0z"/><path class="cls-8" d="M0 26.67h58.26V32H0z"/><path class="cls-9" d="M0 32h58.26v5.33H0z"/><path class="cls-10" d="M0 37.33h58.26v5.33H0z"/><path class="cls-11" d="M0 42.67h58.26V48H0z"/></g></svg>