<svg width="422" height="80" xmlns="http://www.w3.org/2000/svg"><g fill="#2B2C30" fill-rule="evenodd"><path d="M70 0c5.523 0 10 4.477 10 10v60c0 5.523-4.477 10-10 10H10C4.477 80 0 75.523 0 70V10C0 5 5 0 10 0h60zm-5.251 36.464a5 5 0 00-7.071 0L38.586 55.556l-2.829-2.828-5.656 5.657 4.95 4.95a5 5 0 007.07 0l19.092-19.092 2.829 2.828 5.656-5.657zM53.435 25.151a5 5 0 00-7.071 0L21.615 49.899l5.657 5.657L49.9 32.93l2.829 2.828 5.657-5.656zM42.121 13.837a5 5 0 00-7.07 0L13.836 35.05a5 5 0 000 7.071l4.95 4.95 5.657-5.657-2.829-2.828 16.97-16.97 2.83 2.828 5.656-5.657z"/><path d="M109 31.534h10.843v3.742c2.956-2.811 6.27-4.217 9.945-4.217 4.553 0 8.028 1.9 10.424 5.702 2.436-3.84 5.91-5.761 10.424-5.761 1.438 0 2.796.208 4.074.624 1.278.415 2.376 1.069 3.295 1.96.918.89 1.647 2.048 2.186 3.473.54 1.426.809 3.148.809 5.167V62h-10.843V46.975c0-1.544-.11-2.81-.33-3.8-.22-.99-.539-1.762-.958-2.317-.42-.554-.909-.93-1.468-1.128a5.346 5.346 0 00-1.797-.297c-3.475 0-5.212 2.514-5.212 7.542V62h-10.844V46.975c0-1.544-.1-2.82-.3-3.83-.199-1.01-.488-1.812-.868-2.406-.38-.593-.868-1-1.468-1.217-.599-.218-1.298-.327-2.096-.327-.68 0-1.318.1-1.917.297-.6.198-1.129.584-1.588 1.158-.46.574-.819 1.366-1.078 2.376-.26 1.01-.39 2.326-.39 3.95V62H109V31.534zM180 32v31h-11V32h11zm31 10.02c-1.925-1.292-3.87-1.937-5.835-1.937a8.048 8.048 0 00-2.98.545 7.396 7.396 0 00-2.426 1.544 7.098 7.098 0 00-1.628 2.361c-.389.908-.583 1.928-.583 3.058 0 1.09.194 2.089.583 2.997a7.33 7.33 0 001.598 2.362 6.994 6.994 0 002.426 1.544 8.29 8.29 0 003.01.545c2.088 0 4.033-.707 5.835-2.12v9.325c-2.744 1.17-5.344 1.756-7.801 1.756-2.293 0-4.474-.383-6.542-1.15-2.068-.767-3.89-1.867-5.467-3.3-1.576-1.433-2.835-3.15-3.777-5.147-.942-1.998-1.413-4.229-1.413-6.691 0-2.462.45-4.713 1.351-6.751.901-2.039 2.13-3.795 3.686-5.268 1.556-1.474 3.409-2.624 5.559-3.452 2.15-.827 4.453-1.241 6.91-1.241 2.703 0 5.2.565 7.494 1.695v9.325zM240.835 31c.339 0 .727.04 1.165.122v10.565c-1.434-.733-2.987-1.1-4.66-1.1-2.509 0-4.39.764-5.645 2.29-1.255 1.528-1.882 3.757-1.882 6.688V63H219V31.672h10.813v5.13c1.155-1.873 2.569-3.308 4.242-4.306 1.672-.997 3.624-1.496 5.854-1.496h.926zM175 16a6 6 0 110 12 6 6 0 010-12zm82 30.91c0 1.033.19 1.977.568 2.83a7.579 7.579 0 001.496 2.234 6.582 6.582 0 002.214 1.49A7.004 7.004 0 00264 54a7.01 7.01 0 002.722-.536 6.582 6.582 0 002.214-1.49 7.579 7.579 0 001.496-2.234 6.752 6.752 0 00.568-2.77c0-.953-.19-1.857-.568-2.71a7.579 7.579 0 00-1.496-2.234 6.582 6.582 0 00-2.214-1.49A7.004 7.004 0 00264 40a7.01 7.01 0 00-2.722.536 6.582 6.582 0 00-2.214 1.49 7.699 7.699 0 00-1.496 2.204 6.405 6.405 0 00-.568 2.68zm-12 .32c0-2.275.46-4.401 1.381-6.378a15.67 15.67 0 013.845-5.15c1.641-1.458 3.594-2.606 5.856-3.444 2.262-.839 4.735-1.258 7.418-1.258 2.643 0 5.095.41 7.358 1.228 2.262.818 4.225 1.956 5.886 3.414a15.317 15.317 0 013.875 5.21c.92 2.016 1.381 4.242 1.381 6.678s-.47 4.661-1.412 6.678a15.854 15.854 0 01-3.874 5.21c-1.641 1.458-3.614 2.586-5.916 3.384-2.303.799-4.795 1.198-7.478 1.198-2.643 0-5.086-.4-7.328-1.198-2.243-.798-4.175-1.936-5.796-3.414a15.841 15.841 0 01-3.815-5.3c-.92-2.056-1.381-4.342-1.381-6.858zm78-14.768c-2.75-3.336-6.147-5.005-10.19-5.005-1.78 0-3.428.322-4.944.965-1.517.643-2.82 1.518-3.913 2.623-1.092 1.106-1.951 2.422-2.578 3.95-.627 1.528-.94 3.176-.94 4.945 0 1.809.313 3.477.94 5.005a12.168 12.168 0 002.609 3.98 12.23 12.23 0 003.912 2.653c1.496.643 3.114.965 4.853.965 3.801 0 7.218-1.608 10.251-4.824v13.99l-1.213.422c-1.82.643-3.518 1.115-5.095 1.417a24.832 24.832 0 01-4.671.452 23.67 23.67 0 01-9.069-1.779 23.724 23.724 0 01-7.643-5.005c-2.204-2.15-3.973-4.703-5.307-7.658-1.335-2.955-2.002-6.181-2.002-9.679 0-3.497.657-6.703 1.971-9.618 1.315-2.914 3.074-5.427 5.278-7.537 2.204-2.11 4.761-3.76 7.673-4.945a24.051 24.051 0 019.16-1.779c1.82 0 3.609.191 5.368.573 1.759.382 3.609.975 5.55 1.779v14.11zM328 63l7.72-45h11.702l9.108 23.992L365.578 18h11.701L385 63h-11.762l-3.92-25.902L358.58 63h-4.705l-10.193-25.902L339.762 63H328zm87.346-34.095c-1.302-1.046-2.604-1.82-3.906-2.322-1.302-.503-2.564-.754-3.785-.754-1.546 0-2.808.362-3.784 1.086-.977.723-1.465 1.668-1.465 2.834 0 .804.244 1.467.732 1.99.489.522 1.13.975 1.923 1.356.794.382 1.689.714 2.686.995.997.282 1.984.583 2.96.905 3.907 1.286 6.766 3.005 8.577 5.156 1.81 2.15 2.716 4.955 2.716 8.412 0 2.331-.397 4.442-1.19 6.331a13.215 13.215 0 01-3.48 4.855c-1.526 1.346-3.398 2.392-5.615 3.135-2.218.744-4.731 1.116-7.54 1.116-5.818 0-11.21-1.709-16.175-5.126l5.127-9.527c1.791 1.568 3.561 2.733 5.311 3.497 1.75.764 3.48 1.146 5.189 1.146 1.953 0 3.408-.442 4.364-1.327.956-.884 1.434-1.89 1.434-3.015 0-.683-.122-1.276-.366-1.779-.244-.502-.65-.964-1.22-1.387-.57-.422-1.313-.814-2.229-1.175a73.808 73.808 0 00-3.326-1.206 67.333 67.333 0 01-4.548-1.598 14.348 14.348 0 01-3.968-2.322c-1.16-.965-2.095-2.181-2.807-3.648-.713-1.468-1.069-3.327-1.069-5.578 0-2.251.377-4.292 1.13-6.12.752-1.83 1.81-3.398 3.174-4.704 1.363-1.307 3.031-2.322 5.005-3.046 1.974-.723 4.181-1.085 6.623-1.085 2.279 0 4.66.312 7.142.935a31.733 31.733 0 017.142 2.743l-4.762 9.227z" fill-rule="nonzero"/></g></svg>