<svg id="Layer_1" data-name="Layer 1" xmlns="http://www.w3.org/2000/svg" xmlns:xlink="http://www.w3.org/1999/xlink" viewBox="0 0 221 48" width="221" height="48"><defs><style>.cls-1{fill:none;}.cls-2{clip-path:url(#clip-path);}.cls-3{fill:#ce66ff;}.cls-4{fill:#ff6599;}.cls-5{fill:red;}.cls-6{fill:#f90;}.cls-7{fill:#ff0;}.cls-8{fill:#009a00;}.cls-9{fill:#09c;}.cls-10{fill:#340099;}.cls-11{fill:#909;}.cls-12{clip-path:url(#clip-path-2);}.cls-13{clip-path:url(#clip-path-3);}.cls-14{clip-path:url(#clip-path-4);}</style><clipPath id="clip-path"><path class="cls-1" d="M23,34.85a14.71,14.71,0,0,0,5.26-1.7,12.45,12.45,0,0,0,6.5-10.77l0-.41h5.53a16.21,16.21,0,0,0-3-7.56L31.66,18a8.89,8.89,0,0,1,.63,8.69c-1.55,3.54-5.2,6.64-9.29,8.12"/></clipPath><clipPath id="clip-path-2"><path class="cls-1" d="M40.4,22.82H35.59A13.43,13.43,0,0,1,28.67,33.9,15.93,15.93,0,0,1,21,35.84a17.84,17.84,0,0,1-6.28-1.16,15.36,15.36,0,0,0,8.09,2.38h0a14.17,14.17,0,0,0,12.42-7.32l.23-.39,3.21,2A16.25,16.25,0,0,0,40.45,24c0-.4,0-.79-.05-1.18"/></clipPath><clipPath id="clip-path-3"><path class="cls-1" d="M22.81,37.91h0A17.17,17.17,0,0,1,9.33,31a16.32,16.32,0,0,0,28.93,1.18l-2.51-1.6a15,15,0,0,1-12.94,7.37"/></clipPath><clipPath id="clip-path-4"><path class="cls-1" d="M24.11,41.19A17.19,17.19,0,1,1,41.3,24,17.19,17.19,0,0,1,24.11,41.19m0-40.83A23.64,23.64,0,1,0,47.75,24,23.64,23.64,0,0,0,24.11.36"/></clipPath></defs><path d="M212.94,32.65v-4h-9.08V24.56H212V20.78h-8.11v-3.7h8.58v-4H199.3V32.65ZM188.33,20.31a2.27,2.27,0,0,1-.82.72,3.79,3.79,0,0,1-1.11.34,7.08,7.08,0,0,1-1.19.1H183V16.92h2.52a7,7,0,0,1,1.1.08,3.1,3.1,0,0,1,1,.32,1.88,1.88,0,0,1,.74.66,1.9,1.9,0,0,1,.3,1.12,2.13,2.13,0,0,1-.32,1.21m6,12.34-5.11-8.36a5.82,5.82,0,0,0,3-1.94A5.17,5.17,0,0,0,193.31,19a5.7,5.7,0,0,0-.63-2.81,5.13,5.13,0,0,0-1.7-1.82,7.1,7.1,0,0,0-2.4-1,12.59,12.59,0,0,0-2.75-.29h-7.45V32.65H183V24.89h1.61l4.24,7.76Zm-26.64-7.41a5.8,5.8,0,0,1-1.16,1.92,5.66,5.66,0,0,1-6.29,1.25,5.28,5.28,0,0,1-1.76-1.25,5.93,5.93,0,0,1-1.14-1.92A6.91,6.91,0,0,1,157,22.8a7.12,7.12,0,0,1,.4-2.38,5.49,5.49,0,0,1,1.15-1.89,5.48,5.48,0,0,1,4-1.7,5.66,5.66,0,0,1,2.28.46,5.19,5.19,0,0,1,1.76,1.24,5.81,5.81,0,0,1,1.15,1.89,6.65,6.65,0,0,1,.41,2.38,6.91,6.91,0,0,1-.41,2.44m4.67-6.68a9.44,9.44,0,0,0-2.23-3.22,9.83,9.83,0,0,0-3.38-2,12.87,12.87,0,0,0-8.49,0,10,10,0,0,0-3.37,2,9.55,9.55,0,0,0-2.22,3.22,10.83,10.83,0,0,0-.8,4.24,11,11,0,0,0,.8,4.23,9.85,9.85,0,0,0,2.22,3.29,10,10,0,0,0,3.37,2.11,12.39,12.39,0,0,0,8.49,0,9.83,9.83,0,0,0,3.38-2.11A9.73,9.73,0,0,0,172.39,27a11,11,0,0,0,.8-4.23,10.83,10.83,0,0,0-.8-4.24M149.06,30l-3.29-3.1a4.74,4.74,0,0,1-1.68,1.44,5.19,5.19,0,0,1-2.46.55,5.62,5.62,0,0,1-2.23-.44,5,5,0,0,1-1.76-1.23,5.43,5.43,0,0,1-1.14-1.89,6.81,6.81,0,0,1-.42-2.43,6.63,6.63,0,0,1,.42-2.39,5.7,5.7,0,0,1,1.16-1.89,5.26,5.26,0,0,1,1.78-1.25,5.48,5.48,0,0,1,2.27-.46,5.81,5.81,0,0,1,2.21.44,4,4,0,0,1,1.74,1.35l3.2-3.2a7.71,7.71,0,0,0-3.24-2.14,12.07,12.07,0,0,0-8.24,0A9.9,9.9,0,0,0,134,15.36a9.34,9.34,0,0,0-2.25,3.24,10.77,10.77,0,0,0-.81,4.25,10.62,10.62,0,0,0,.8,4.2A9.69,9.69,0,0,0,134,30.32a9.86,9.86,0,0,0,3.32,2.11,11.43,11.43,0,0,0,4.19.75,10.49,10.49,0,0,0,4.39-.87,9.39,9.39,0,0,0,3.2-2.36m-22.53,2.7v-4h-9.08V24.56h8.11V20.78h-8.11v-3.7H126v-4H112.89V32.65ZM107.7,17.14v-4H91.94v4h5.52V32.65h4.72V17.14Zm-21-4H82V32.65h4.75ZM76.26,15a8.68,8.68,0,0,0-3-1.79,10,10,0,0,0-3.38-.61,11,11,0,0,0-2.74.34A7.66,7.66,0,0,0,64.69,14,5.91,5.91,0,0,0,63,16a5.54,5.54,0,0,0-.66,2.79A5.28,5.28,0,0,0,62.72,21a4.86,4.86,0,0,0,1.13,1.57,6,6,0,0,0,1.6,1.06,15.25,15.25,0,0,0,1.84.72c.64.2,1.22.39,1.72.57a6.06,6.06,0,0,1,1.27.58,2.6,2.6,0,0,1,.79.7,1.61,1.61,0,0,1,.28.94,2.13,2.13,0,0,1-.22,1,1.85,1.85,0,0,1-.6.67,2.84,2.84,0,0,1-.87.36,4.9,4.9,0,0,1-1,.11,5.08,5.08,0,0,1-2.33-.6,5.77,5.77,0,0,1-1.89-1.47l-3.1,3.14a8.76,8.76,0,0,0,3.26,2.09,11.71,11.71,0,0,0,4.06.73,10,10,0,0,0,2.79-.39,7.27,7.27,0,0,0,2.4-1.18,5.81,5.81,0,0,0,1.67-2,6.45,6.45,0,0,0,.62-2.92,4.69,4.69,0,0,0-.58-2.44,5.48,5.48,0,0,0-1.46-1.64,7.9,7.9,0,0,0-2-1.07c-.72-.26-1.41-.51-2.07-.73-.46-.14-.88-.29-1.24-.42a5.37,5.37,0,0,1-1-.46,1.86,1.86,0,0,1-.6-.58,1.53,1.53,0,0,1-.21-.83,1.66,1.66,0,0,1,.26-.95A2.22,2.22,0,0,1,68,16.9a2.74,2.74,0,0,1,.87-.32,6.19,6.19,0,0,1,1-.08,4.37,4.37,0,0,1,1.89.46,4.1,4.1,0,0,1,1.59,1.23Z"/><path d="M218,15v-.62h.36a.93.93,0,0,1,.29.05.23.23,0,0,1,.14.24.25.25,0,0,1-.15.26.88.88,0,0,1-.32.07Zm-.39,1.22H218v-.91h.28l.51.91h.48l-.59-1a.7.7,0,0,0,.37-.2.56.56,0,0,0,.13-.39.67.67,0,0,0-.06-.3.58.58,0,0,0-.19-.19.71.71,0,0,0-.25-.11,1.54,1.54,0,0,0-.3,0h-.77Zm-.74-1.72a1.52,1.52,0,0,1,.86-.86,1.64,1.64,0,0,1,1.28,0,1.63,1.63,0,0,1,.51.34,1.64,1.64,0,0,1,.48,1.16,1.51,1.51,0,0,1-.13.63,1.54,1.54,0,0,1-.35.52,1.5,1.5,0,0,1-.51.35,1.64,1.64,0,0,1-1.8-.35,1.67,1.67,0,0,1-.34-.52,1.62,1.62,0,0,1,0-1.27m-.28,1.39a2.11,2.11,0,0,0,.41.61,2,2,0,0,0,.62.4,2,2,0,0,0,1.5,0,2,2,0,0,0,.62-.4,2.11,2.11,0,0,0,.41-.61,1.84,1.84,0,0,0,0-1.5,1.87,1.87,0,0,0-.41-.61,2.06,2.06,0,0,0-.62-.42,2,2,0,0,0-1.5,0,2.06,2.06,0,0,0-.62.42,1.87,1.87,0,0,0-.41.61,1.84,1.84,0,0,0,0,1.5"/><g class="cls-2"><rect class="cls-3" width="58.26" height="5.33"/><rect class="cls-4" y="5.33" width="58.26" height="5.33"/><rect class="cls-5" y="10.67" width="58.26" height="5.33"/><rect class="cls-6" y="16" width="58.26" height="5.33"/><rect class="cls-7" y="21.33" width="58.26" height="5.33"/><rect class="cls-8" y="26.67" width="58.26" height="5.33"/><rect class="cls-9" y="32" width="58.26" height="5.33"/><rect class="cls-10" y="37.33" width="58.26" height="5.33"/><rect class="cls-11" y="42.67" width="58.26" height="5.33"/></g><g class="cls-12"><rect class="cls-3" width="58.26" height="5.33"/><rect class="cls-4" y="5.33" width="58.26" height="5.33"/><rect class="cls-5" y="10.67" width="58.26" height="5.33"/><rect class="cls-6" y="16" width="58.26" height="5.33"/><rect class="cls-7" y="21.33" width="58.26" height="5.33"/><rect class="cls-8" y="26.67" width="58.26" height="5.33"/><rect class="cls-9" y="32" width="58.26" height="5.33"/><rect class="cls-10" y="37.33" width="58.26" height="5.33"/><rect class="cls-11" y="42.67" width="58.26" height="5.33"/></g><g class="cls-13"><rect class="cls-3" width="58.26" height="5.33"/><rect class="cls-4" y="5.33" width="58.26" height="5.33"/><rect class="cls-5" y="10.67" width="58.26" height="5.33"/><rect class="cls-6" y="16" width="58.26" height="5.33"/><rect class="cls-7" y="21.33" width="58.26" height="5.33"/><rect class="cls-8" y="26.67" width="58.26" height="5.33"/><rect class="cls-9" y="32" width="58.26" height="5.33"/><rect class="cls-10" y="37.33" width="58.26" height="5.33"/><rect class="cls-11" y="42.67" width="58.26" height="5.33"/></g><g class="cls-14"><rect class="cls-3" width="58.26" height="5.33"/><rect class="cls-4" y="5.33" width="58.26" height="5.33"/><rect class="cls-5" y="10.67" width="58.26" height="5.33"/><rect class="cls-6" y="16" width="58.26" height="5.33"/><rect class="cls-7" y="21.33" width="58.26" height="5.33"/><rect class="cls-8" y="26.67" width="58.26" height="5.33"/><rect class="cls-9" y="32" width="58.26" height="5.33"/><rect class="cls-10" y="37.33" width="58.26" height="5.33"/><rect class="cls-11" y="42.67" width="58.26" height="5.33"/></g></svg>